<?xml version="1.0" encoding="UTF-8"?>
<svg xmlns="http://www.w3.org/2000/svg" id="Layout" viewBox="0 0 100 100">
  <path d="M56.041,73.9H47.959a.901.901,0,0,1-.7793-.45l-4.042-7a.8991.8991,0,0,1,0-.9l4.042-7a.901.901,0,0,1,.7793-.45h8.082a.901.901,0,0,1,.7793.45l4.042,7a.8991.8991,0,0,1,0,.9l-4.042,7A.901.901,0,0,1,56.041,73.9ZM48.4785,72.1h7.043L59.0439,66l-3.5224-6.1h-7.043L44.9561,66Z"></path>
  <path d="M52,69.9A3.9,3.9,0,1,1,55.9,66,3.9052,3.9052,0,0,1,52,69.9Zm0-6A2.1,2.1,0,1,0,54.1,66,2.1014,2.1014,0,0,0,52,63.9Z"></path>
  <path d="M40.0059,53.3686V42.668a.9.9,0,0,0-.9-.9h-7.211a.9.9,0,0,0-.9.9V70.3125a.905.905,0,0,0,.2637.6367l2.5713,2.57a.9008.9008,0,0,0,.6367.2637h2.2774A.9011.9011,0,0,0,37.38,73.52l2.3623-2.3623a.9012.9012,0,0,0,.2637-.6367V53.3686ZM38.2051,58.84l-5.41,2.2721V56.9939l5.41-2.2721Zm0-6.0713-5.41,2.2721V50.9225l5.41-2.2724Zm-5.41,10.2964,5.41-2.2721v4.1183l-5.41,2.2721Zm5.41-19.4973v3.13l-5.41,2.2721V43.5679ZM36.37,71.9824H34.8389L32.7949,69.94v-.803l5.41-2.2721v3.2831Z"></path>
  <path d="M44,43.5679H27a.9.9,0,0,1-.9-.9V37.1323a2.6533,2.6533,0,0,1,2.65-2.65h13.5a2.6533,2.6533,0,0,1,2.65,2.65V42.668A.9.9,0,0,1,44,43.5679Zm-16.1-1.8H43.1V37.1323a.8506.8506,0,0,0-.85-.85H28.75a.8506.8506,0,0,0-.85.85Z"></path>
  <path d="M72.7783,29.6309H67a.9.9,0,1,1,0-1.8h5.7783a.9.9,0,1,1,0,1.8Z"></path>
  <path d="M72.7783,33.6309H67a.9.9,0,1,1,0-1.8h5.7783a.9.9,0,1,1,0,1.8Z"></path>
  <path d="M67.3018,42.1H52.7a2.8032,2.8032,0,0,1-2.8-2.8V34.7a2.8032,2.8032,0,0,1,2.8-2.8h9.4621a3.619,3.619,0,0,0,3.5574,3H67a.9.9,0,0,0,.9-.9V27a.9.9,0,0,0-.9-.9H65.72a3.6242,3.6242,0,0,0-3.62,3.62v.38H52.7A4.6059,4.6059,0,0,0,48.1,34.7v4.6A4.6059,4.6059,0,0,0,52.7,43.9H67.3018A2.8013,2.8013,0,0,1,70.1,46.6987V48.3a2.8027,2.8027,0,0,1-2.8,2.8H56.9V50a.9.9,0,0,0-.9-.9H48a.9.9,0,0,0-.9.9v1.1H44A.9.9,0,0,0,44,52.9h3.1V54a.9006.9006,0,0,0,.9.9h8a.9006.9006,0,0,0,.9-.9V52.9H67.3A4.6064,4.6064,0,0,0,71.9,48.3V46.6987A4.6042,4.6042,0,0,0,67.3018,42.1ZM63.9,29.72A1.8219,1.8219,0,0,1,65.72,27.9h.38v5.2h-.38A1.8219,1.8219,0,0,1,63.9,31.28ZM55.1,53.1H48.9V50.9H55.1Z"></path>
</svg>
