<?xml version="1.0" encoding="UTF-8"?>
<svg xmlns="http://www.w3.org/2000/svg" xmlns:xlink="http://www.w3.org/1999/xlink" version="1.1" id="Layout" x="0px" y="0px" viewBox="0 0 27.801 47.683" style="enable-background:new 0 0 27.801 47.683;" xml:space="preserve">
<path d="M13.9,21.564c-4.356,0-7.9-4.837-7.9-10.782S9.544,0,13.9,0s7.9,4.837,7.9,10.782S18.256,21.564,13.9,21.564z M13.9,1.8  c-3.363,0-6.1,4.03-6.1,8.982s2.736,8.982,6.1,8.982s6.1-4.03,6.1-8.982S17.263,1.8,13.9,1.8z"></path>
<path d="M25.601,47.682H2.56C1.183,47.715,0.038,46.627,0,45.25V29.725c0-4.324,3.777-7.842,8.421-7.842  c0.215,0,0.423,0.077,0.586,0.217l2.078,1.783h5.876l1.791-1.745c0.168-0.164,0.394-0.256,0.628-0.255  c4.644,0,8.421,3.518,8.421,7.842v15.858C27.771,46.769,26.788,47.708,25.601,47.682z M8.095,23.689  c-3.372,0.012-6.141,2.667-6.295,6.035V45.25c0.039,0.383,0.377,0.664,0.76,0.632h23.041c0.216,0,0.398-0.137,0.398-0.299V29.725  c-0.153-3.356-2.904-6.006-6.263-6.034l-1.782,1.736c-0.168,0.164-0.393,0.256-0.628,0.256h-6.575c-0.215,0-0.423-0.077-0.586-0.218  L8.095,23.689z"></path>
</svg>
