<?xml version="1.0" encoding="UTF-8"?>
<svg xmlns="http://www.w3.org/2000/svg" id="Layout" viewBox="0 0 100 100">
  <path d="M68.48,67.1582l-6.1408-16.87a14.5381,14.5381,0,1,0-24.6774,0l-6.1408,16.87A.8991.8991,0,0,0,32.5791,68.34l5.45-1.3271,3.3213,4.52a.9012.9012,0,0,0,.7256.3672.8074.8074,0,0,0,.1279-.01.8983.8983,0,0,0,.7178-.583l5.1935-14.2683a13.0782,13.0782,0,0,0,3.7692,0l5.1935,14.2683a.8983.8983,0,0,0,.7178.583.8074.8074,0,0,0,.1279.01.9012.9012,0,0,0,.7256-.3672l3.3213-4.52,5.45,1.3271A.8991.8991,0,0,0,68.48,67.1582ZM46.3252,56.6953l-4.52,12.417L39.125,65.4629a.9026.9026,0,0,0-.7256-.3672.8816.8816,0,0,0-.2129.0264l-4.3994,1.0713,5.1455-14.1358q.37.4327.773.8338c.0582.0583.1219.1107.181.1682.2347.2266.4743.4472.7232.6574.1566.1329.3193.2577.4814.3841.1551.12.3111.2384.4708.3522.1978.1417.3979.2791.6029.4109.12.0771.2435.149.3662.2227a14.4654,14.4654,0,0,0,2.5019,1.1962c.1046.0383.2077.079.3132.1148.2618.0889.5274.1677.7956.2417C46.2035,56.6567,46.2633,56.6791,46.3252,56.6953Zm1.3419-1.5442q-.61-.1132-1.2026-.2858l-.0271-.007a12.8309,12.8309,0,0,1-4.4537-2.3347l-.0093-.007c-.28-.2268-.5458-.4714-.8063-.7214-.0485-.0468-.1018-.0884-.15-.1359-.1784-.1767-.3414-.3689-.5093-.5562a12.809,12.809,0,0,1-1.0308-1.2987c-.0121-.0176-.0262-.0335-.0382-.0512a12.7373,12.7373,0,1,1,21.1194,0c-.012.0177-.0261.0336-.0382.0512a12.809,12.809,0,0,1-1.0308,1.2987c-.1679.1873-.3309.38-.5093.5562-.0477.0475-.101.0891-.15.1359-.2605.25-.5261.4946-.8063.7214l-.0093.007a12.8309,12.8309,0,0,1-4.4537,2.3347l-.0271.007q-.5923.1719-1.2026.2858a12.2656,12.2656,0,0,1-4.6658,0Zm14.1464,9.971a.8934.8934,0,0,0-.9385.3408l-2.6807,3.6494-4.52-12.417c.0619-.0162.1217-.0386.1834-.0557.2683-.074.5338-.1528.7957-.2417.1053-.0357.2083-.0764.3127-.1146a14.4554,14.4554,0,0,0,2.5023-1.1964c.1227-.0737.2459-.1456.3662-.2227.205-.1318.4051-.2692.6029-.4109.16-.1138.3157-.232.4708-.3522.1621-.1264.3248-.2512.4814-.3841.2489-.21.4885-.4308.7232-.6574.0591-.0575.1228-.11.181-.1682q.4018-.4015.773-.8338l5.1455,14.1358Z"></path>
  <path d="M41.4971,47.575V46.97a1.17,1.17,0,0,1,.3-.8777L44.8059,42.77c1.406-1.4892,2.1062-2.5539,2.0776-3.5231-.03-.8559-.6471-.9623-1.8073-.9623a22.2437,22.2437,0,0,0-2.7218.1324.5686.5686,0,0,1-.7044-.5911l-.0164-.3371c-.0341-.4095.2239-.6853.7713-.774a15.3108,15.3108,0,0,1,2.8938-.2539c2.2741,0,3.7073.4532,3.7073,2.6072,0,1.3814-.4081,2.326-1.9342,3.9858l-2.7136,2.94c-.1693.1843-.1078.3113.1556.2921.4286-.0163.9023-.0327,1.305-.0327h2.9033a.5835.5835,0,0,1,.6539.6525v.6688a.5839.5839,0,0,1-.6539.6539H42.151A.5845.5845,0,0,1,41.4971,47.575Z"></path>
  <path d="M51.5736,48.1442a.6027.6027,0,0,1-.5651-.7425l.0519-.3959a.5923.5923,0,0,1,.7371-.5678,19.61,19.61,0,0,0,2.2987.1665c1.9219,0,2.2986-.602,2.3369-1.896.0518-1.7609-.7781-1.855-3.2-2.0844l-1.11-.1078a.7893.7893,0,0,1-.7275-.85l.2375-4.3694a.61.61,0,0,1,.6729-.6347h5.18a.5768.5768,0,0,1,.6374.67l-.0177.4218a.596.596,0,0,1-.658.6347H53.61a.26.26,0,0,0-.288.2716l-.1065,1.9384c-.0163.1733.0724.2634.2444.2825l1.1985.1324c2.876.2949,3.8534,1.4551,3.8384,3.7128,0,1.9015-.6907,3.7033-3.8821,3.7033A18.7156,18.7156,0,0,1,51.5736,48.1442Z"></path>
</svg>
