<?xml version="1.0" encoding="UTF-8"?>
<svg xmlns="http://www.w3.org/2000/svg" id="Layout" viewBox="0 0 100 100">
  <path d="M58.4482,61.9a.8986.8986,0,0,1-.4189-.1035L50,57.5752l-8.0293,4.2217a.9.9,0,0,1-1.3057-.9492l1.5332-8.94-6.4951-6.3315a.9.9,0,0,1,.4981-1.5352l8.9775-1.3047,4.0147-8.1342a.9364.9364,0,0,1,1.6132,0l4.0147,8.1342,8.9775,1.3047a.9.9,0,0,1,.4981,1.5352l-6.4951,6.3315,1.5332,8.9405A.9.9,0,0,1,58.4482,61.9ZM50,55.6582a.9076.9076,0,0,1,.4189.1035l6.834,3.5928-1.3047-7.6094a.9.9,0,0,1,.2588-.7969L61.7354,45.56l-7.6416-1.11a.898.898,0,0,1-.6768-.4922L50,37.0337,46.583,43.957a.898.898,0,0,1-.6768.4922l-7.6416,1.11,5.5284,5.3886a.9.9,0,0,1,.2588.7969l-1.3047,7.6094,6.834-3.5928A.9076.9076,0,0,1,50,55.6582Z"></path>
  <path d="M50,70.9A20.9,20.9,0,1,1,70.9,50,20.9242,20.9242,0,0,1,50,70.9Zm0-40A19.1,19.1,0,1,0,69.1,50,19.1212,19.1212,0,0,0,50,30.9Z"></path>
</svg>
