<?xml version="1.0" encoding="UTF-8"?>
<svg xmlns="http://www.w3.org/2000/svg" id="Layout" viewBox="0 0 100 100">
  <path d="M73.5576,50.2456l-5.789-13.5649a.9.9,0,0,0-1.1817-.4746l-5.9346,2.5327a.9012.9012,0,0,0-.4746,1.1811l.1128.2642-10.0669.7065c-.1466-.0021-.43-.0064-4.3179,1.5836-1.1125-.1945-2.8975-.4729-6.1317-.9553l.0483-.1131a.9012.9012,0,0,0-.4746-1.1812l-5.9346-2.5327a.901.901,0,0,0-1.1817.4741l-5.789,13.5645a.9013.9013,0,0,0,.4746,1.1816l5.9346,2.5322a.8961.8961,0,0,0,1.048-.2586l12.4959,8.22a2.8836,2.8836,0,0,0,1.5654.4619,2.9237,2.9237,0,0,0,.628-.0684,2.8964,2.8964,0,0,0,2.2452-2.3264l.94.6038A3.2786,3.2786,0,0,0,53.54,62.6a2.8656,2.8656,0,0,0,2.4405-1.2861,2.7227,2.7227,0,0,0,.4074-1.1594,3.1493,3.1493,0,0,0,1.09.2043A2.8778,2.8778,0,0,0,59.9219,59.06a2.7645,2.7645,0,0,0,.4253-1.4348c.0917.0089.1832.02.2758.02a3.0125,3.0125,0,0,0,.63-.0683,2.8853,2.8853,0,0,0,2.2439-3.2922l2.31-1.1741.16.3745a.9007.9007,0,0,0,1.1816.4746l5.9346-2.5322a.9015.9015,0,0,0,.4746-1.1812Zm-40.8271,3.19-4.2793-1.8261,5.083-11.9087,4.2793,1.8262ZM61.5684,55.333a1.1159,1.1159,0,0,1-1.5371.335l-1.124-.7216,0,0L49.3027,48.78a.9.9,0,1,0-.9726,1.5146l9.6045,6.1665a1.1239,1.1239,0,1,1-1.2032,1.8741l-1.809-1.1617-.0005,0-7.794-5.0049a.9.9,0,1,0-.9726,1.5136l7.7939,5.0059a1.13,1.13,0,1,1-1.2021,1.873l-3.2018-2.0557-.0023-.0019-4.5909-2.9472a.9.9,0,1,0-.9726,1.5156l4.5949,2.95a1.1144,1.1144,0,0,1,.3309,1.5351,1.1173,1.1173,0,0,1-1.5283.34L34.65,53.5242,39.0437,43.23c1.5134.2253,2.721.4074,3.6994.558-.7416.3115-1.5353.6462-2.4355,1.0285a3.2316,3.2316,0,0,0-1.69,1.5991,2.7719,2.7719,0,0,0,1.61,3.8555,3.1585,3.1585,0,0,0,1.0518.1792,3.3093,3.3093,0,0,0,1.2734-.2578l8.0861-3.3786,10.5956,6.9821a1.1168,1.1168,0,0,1,.334,1.5371Zm1.1222-2.66a2.858,2.858,0,0,0-.4748-.3873L51.2246,45.0444a.8841.8841,0,0,0-.848-.0583c-.0205.0069-.0418.004-.0621.0124l-8.4551,3.5327a1.4376,1.4376,0,0,1-1.0323.0425.9745.9745,0,0,1-.582-1.3916,1.4438,1.4438,0,0,1,.7608-.7065c4.1015-1.7422,8.7666-3.6651,9.2587-3.7871l10.5889-.7393a.8586.8586,0,0,0,.17-.0469L65.0984,51.45ZM67.27,51.95,62.1865,40.041l4.2793-1.8262,5.083,11.9092Z"></path>
</svg>
