<?xml version="1.0" encoding="UTF-8"?>
<svg xmlns="http://www.w3.org/2000/svg" id="Layout" viewBox="0 0 100 100">
  <path d="M29.583,64.2285a.9.9,0,0,1-.5537-1.61L69.8652,30.8569a.9.9,0,0,1,1.1055,1.4209l-40.8359,31.76A.8969.8969,0,0,1,29.583,64.2285Z"></path>
  <path d="M45.4629,37.0044H34.1191a.9.9,0,1,1,0-1.8H45.4629a.9.9,0,1,1,0,1.8Z"></path>
  <path d="M45.4629,41.5415H34.1191a.9.9,0,1,1,0-1.8H45.4629a.9.9,0,1,1,0,1.8Z"></path>
  <path d="M62.0586,60.2656a4.3032,4.3032,0,0,1-3.53-2.0683,2.0933,2.0933,0,0,0-1.5625-1.0528,3.49,3.49,0,0,0-2.3047,1.293.9.9,0,0,1-1.3867-1.1484,5.4122,5.4122,0,0,1,3.7461-1.9434,3.7976,3.7976,0,0,1,2.9688,1.7988,2.5777,2.5777,0,0,0,2.1367,1.32A3.426,3.426,0,0,0,64.5381,56.98a.9.9,0,1,1,1.5332.9434,5.1818,5.1818,0,0,1-3.88,2.3408C62.1484,60.2646,62.1035,60.2656,62.0586,60.2656Z"></path>
  <path d="M70.9854,30.1H29.0146a.9.9,0,0,0-.9.9V63.8955a.9006.9006,0,0,0,.9.9h5.3389V69a.9.9,0,1,0,1.8008,0V64.7959h22.02V69a.9.9,0,1,0,1.8008,0V64.7959h3.8711V69a.9.9,0,0,0,1.8008,0V64.7959h5.3389a.9006.9006,0,0,0,.9-.9V31A.9.9,0,0,0,70.9854,30.1Zm-.9,32.895H29.915V31.9h40.17Z"></path>
</svg>
