<?xml version="1.0" encoding="UTF-8"?>
<svg xmlns="http://www.w3.org/2000/svg" id="Layout" viewBox="0 0 100 100">
  <path d="M61.458,48.6455a.9.9,0,0,1-.8789-1.0952l2.1973-9.8877H60.2373a.9.9,0,0,1-.8428-1.2158l3.6612-9.7627a.9.9,0,0,1,.8427-.584H69.249a.8991.8991,0,0,1,.836,1.2324l-2.42,6.09H70a.9.9,0,0,1,.76,1.3833L62.2178,48.229A.9014.9014,0,0,1,61.458,48.6455Zm.0781-12.7827h2.3623a.9.9,0,0,1,.8789,1.0952l-1.33,5.9858L68.36,35.2222H66.3389a.8992.8992,0,0,1-.836-1.2325l2.42-6.09h-3.4Z"></path>
  <path d="M74.8838,62.2842l-.2315-2.2129A4.6465,4.6465,0,0,0,71.2344,56.05l-7.08-1.9307a19.9814,19.9814,0,0,1-5.3418-2.3379l-4.1846-2.6147a9.59,9.59,0,0,0-5.5859-1.4443l-13.2073.6952-.0008,0-5.6122.2954a1.1658,1.1658,0,0,0-.7715.3476l-4.043,4.085a1.0479,1.0479,0,0,0-.1494,1.2988L26.5186,56.47a.4772.4772,0,0,1,.0625.3457l-.4454,2.2051a5.2621,5.2621,0,0,0,4.3382,6.2452,5.4544,5.4544,0,0,0,10.4529,1.2128H58.166a5.454,5.454,0,0,0,10.1528-.081l4.0025-.711A3.1372,3.1372,0,0,0,74.8838,62.2842ZM49.1357,49.52a7.7546,7.7546,0,0,1,4.5391,1.1729l4.1836,2.6147c.6121.383,1.2474.7224,1.8926,1.0418l-1.5362,2.3039L36.5156,54.68a1.27,1.27,0,0,1-1.0722-1.7178l1.0553-2.7768Zm-13.27,18.5777a3.66,3.66,0,1,1,3.66-3.6592A3.6637,3.6637,0,0,1,35.8652,68.0977Zm27.3623,0a3.66,3.66,0,1,1,3.66-3.6592A3.6637,3.6637,0,0,1,63.2275,68.0977Zm8.7793-4.1827-3.3217.59c0-.0224.0034-.0442.0034-.0666a5.461,5.461,0,1,0-10.9219,0c0,.0807.0087.1593.0121.2392H41.314c.0035-.08.0122-.1585.0122-.2392A5.4589,5.4589,0,0,0,30.5,63.44a3.4691,3.4691,0,0,1-2.6006-4.0643l.4453-2.2051a2.2663,2.2663,0,0,0-.2978-1.6523l-.9483-1.5235,3.4619-3.4975,3.9727-.2091-.7725,2.0347a3.0708,3.0708,0,0,0,2.5928,4.15l22.2324,2.0214c.0274.002.0537.0039.0811.0039a.9012.9012,0,0,0,.749-.4013l2.0054-3.0076a21.8608,21.8608,0,0,0,2.26.7664l7.0791,1.9306a2.8541,2.8541,0,0,1,2.1006,2.4727l.2315,2.2129A1.3309,1.3309,0,0,1,72.0068,63.915Z"></path>
</svg>
