<?xml version="1.0" encoding="UTF-8"?>
<svg xmlns="http://www.w3.org/2000/svg" id="Layout" viewBox="0 0 100 100">
  <path d="M62.7574,41.7526,68.38,37.4932a.9.9,0,1,0-1.0879-1.4346l-2.2293,1.6888-.9406-.8983a.9.9,0,0,0-1.2442,1.3018l.7309.6979L40.584,56.2911,39.4834,55.15a.9.9,0,1,0-1.2949,1.25l.9507.9853L34.292,61.0576A.9006.9006,0,0,0,35.38,62.4932l1.22-.924V64.5a.9.9,0,1,0,1.8008,0V61.4182l4.5234,3.7732a.9.9,0,0,0,1.1524-1.3828l-4.9654-4.1419,1.9545-1.4807c.0187-.0154.0419-.0214.06-.0385l.01-.014L61.1974,42.9344l5.43,21.7834a.9.9,0,0,0,.872.6826.8875.8875,0,0,0,.2188-.0274.8994.8994,0,0,0,.6552-1.0908Z"></path>
  <path d="M67.1239,30.0128h0m-.6377.4831,1.1015,1.454L29.9853,60.4366l-1.1015-1.454L66.4862,30.4959m.1538-2.1208a.9953.9953,0,0,0-.6031.203L27.1592,58.0309a1,1,0,0,0-.1932,1.401l2.0676,2.7293a1,1,0,0,0,1.401.1932L69.3123,32.9016a1,1,0,0,0,.1933-1.401l-2.0677-2.7293a.9986.9986,0,0,0-.7979-.3962Z"></path>
  <path d="M71.5,63.6h-40a.9.9,0,1,0,0,1.8008h2.1v4.1a.9.9,0,1,0,1.8008,0V65.4H66.6v4.1a.9.9,0,0,0,1.8008,0V65.4h3.1a.9.9,0,1,0,0-1.8008Z"></path>
</svg>
