<?xml version="1.0" encoding="UTF-8"?>
<svg xmlns="http://www.w3.org/2000/svg" xmlns:xlink="http://www.w3.org/1999/xlink" version="1.1" id="Layout" x="0px" y="0px" viewBox="0 0 44 43" style="enable-background:new 0 0 44 43;" xml:space="preserve">
<path d="M41.966,0H2.034C0.911,0,0,0.911,0,2.034v26.932C0,30.089,0.911,31,2.034,31l0,0H17.85v5.583H10.5c-0.552,0-1,0.448-1,1V42  c0,0.552,0.448,1,1,1h23c0.552,0,1-0.448,1-1v-4.417c0-0.552-0.448-1-1-1h-7.35V31h15.816C43.089,31,44,30.089,44,28.966V2.034  C44,0.911,43.089,0,41.966,0z M2.034,1.8h39.932c0.129,0,0.234,0.105,0.234,0.234V5.1H1.8V2.034C1.8,1.905,1.905,1.8,2.034,1.8z   M32.7,41.2H11.3v-2.817h21.4V41.2z M24.35,36.583h-4.7V31h4.7V36.583z M41.966,29.2H2.034c-0.129,0-0.234-0.105-0.234-0.234V6.9  h40.4v22.066C42.2,29.095,42.095,29.2,41.966,29.2z"></path>
<path d="M17.068,21.835H29.01c0.422,0,0.787-0.293,0.879-0.705l1.99-8.956c0.108-0.485-0.198-0.966-0.683-1.074  c-0.064-0.014-0.13-0.021-0.196-0.021H15.696l-0.963-1.981c-0.172-0.349-0.551-0.545-0.935-0.485  c-0.035-0.01-0.071-0.017-0.108-0.022h-0.002L8.999,8.6c-0.497,0.006-0.895,0.413-0.89,0.91C8.114,10,8.51,10.395,9,10.4h0.002  l4.359-0.008l0.375,0.771c-0.152,0.06-0.284,0.16-0.383,0.29c-0.169,0.235-0.215,0.537-0.123,0.811l2.985,8.956  C16.337,21.588,16.681,21.835,17.068,21.835z M29.878,12.879l-1.59,7.156H17.717l-2.385-7.156H29.878z"></path>
<path d="M27.39,22.715c-1.602,0-2.9,1.298-2.9,2.9s1.298,2.9,2.9,2.9c1.602,0,2.9-1.298,2.9-2.9  C30.288,24.014,28.991,22.717,27.39,22.715z M27.39,26.715c-0.608,0-1.1-0.492-1.1-1.1s0.492-1.1,1.1-1.1s1.1,0.492,1.1,1.1v0  C28.49,26.222,27.997,26.714,27.39,26.715z"></path>
<path d="M18.387,22.715c-1.602,0-2.9,1.298-2.9,2.9s1.298,2.9,2.9,2.9c1.602,0,2.9-1.298,2.9-2.9  C21.284,24.014,19.987,22.717,18.387,22.715z M18.387,26.715c-0.608,0-1.1-0.492-1.1-1.1s0.492-1.1,1.1-1.1s1.1,0.492,1.1,1.1v0  C19.486,26.222,18.994,26.714,18.387,26.715z"></path>
</svg>
