<?xml version="1.0" encoding="iso-8859-1"?>
<!-- Uploaded to: SVG Repo, www.svgrepo.com, Generator: SVG Repo Mixer Tools -->
<!DOCTYPE svg PUBLIC "-//W3C//DTD SVG 1.1//EN" "http://www.w3.org/Graphics/SVG/1.1/DTD/svg11.dtd">
<svg fill="#000000" version="1.1" id="Capa_1" xmlns="http://www.w3.org/2000/svg" xmlns:xlink="http://www.w3.org/1999/xlink" 
	 viewBox="0 0 360 360" xml:space="preserve">
<g>
	<path d="M345,105H235c-3.989,0-7.814,1.589-10.628,4.415l-72.405,72.7c-17.297,17.296-17.543,45.284-0.738,62.885H75
		c-24.813,0-45,20.187-45,45s20.188,45,45,45h130c3.403,0,6.542-1.135,9.059-3.045c0.544-0.412,1.062-0.862,1.55-1.35
		l105.604-105.604H345c8.284,0,15-6.716,15-15V120C360,111.716,353.284,105,345,105z M330,195.002h-15
		c-3.978,0-7.794,1.58-10.606,4.393L198.787,305H75c-8.271,0-15-6.729-15-15s6.729-15,15-15h105.148
		c3.979,0,7.794-1.581,10.606-4.394l49.998-49.999c5.858-5.858,5.858-15.355,0-21.213c-5.857-5.857-15.355-5.857-21.213,0.001
		l-25.198,25.199c-2.826,2.8-6.575,4.341-10.556,4.341c-4.007,0-7.773-1.56-10.606-4.393c-2.833-2.834-4.393-6.6-4.393-10.607
		c0-4.007,1.56-7.773,4.414-10.629L241.231,135H330V195.002z"/>
	<rect x="65" y="85" width="20" height="30"/>
	<path d="M150,100c0-41.355-33.645-75-75-75S0,58.645,0,100s33.645,75,75,75S150,141.355,150,100z M30,100c0-24.813,20.188-45,45-45
		s45,20.187,45,45s-20.188,45-45,45S30,124.813,30,100z"/>
</g>
</svg>