<?xml version="1.0" encoding="UTF-8"?>
<svg xmlns="http://www.w3.org/2000/svg" id="Layout" viewBox="0 0 100 100">
  <path d="M67.417,45.4336H57.9535l-.9125-7.3672H66.5a.9.9,0,1,0,0-1.8H56.8181l-.92-7.4253a.9.9,0,0,0-1.7871.2217l.8922,7.2036H44.3679l.8142-6.5742a.9.9,0,1,0-1.7861-.2217l-.8417,6.7959H33.5a.9.9,0,0,0,0,1.8h8.8314l-.9125,7.3672H32.5835a.9.9,0,0,0,0,1.8h8.6124l-.8966,7.2393a.9.9,0,0,0,.7822,1.0039,1.0921,1.0921,0,0,0,.1119.0068.9.9,0,0,0,.892-.79l.9241-7.46H56.3619l.8461,6.8311a.9006.9006,0,0,0,.8926.79,1.0654,1.0654,0,0,0,.1113-.0068.9014.9014,0,0,0,.7832-1.0039l-.8187-6.61H67.417a.9.9,0,1,0,0-1.8Zm-24.1846,0,.9125-7.3672H55.2265l.9125,7.3672Z"></path>
  <path d="M71,65.5833H59.6083l0,0v-2.75a1.8192,1.8192,0,0,0-1.8164-1.8164H56.4V55.5H69.12a.9166.9166,0,0,0,.9086-1.0378L66.6061,28.7955A.9167.9167,0,0,0,65.6974,28H34.3026a.9167.9167,0,0,0-.9087.7955L29.9717,54.4622A.9166.9166,0,0,0,30.88,55.5H43.6v5.5166H42.2085a1.819,1.819,0,0,0-1.8169,1.8164v2.75l0,0H29a1,1,0,0,0-1,1V71a1,1,0,0,0,1,1H71a1,1,0,0,0,1-1V66.5833A1,1,0,0,0,71,65.5833ZM31.8893,53.7l3.1866-23.9H64.9241l3.1866,23.9ZM45.4,55.5h9.2v5.5166H45.4ZM42.1914,65.583l.0171-2.7656,15.5991.0156v2.75l0,0H42.1913ZM70.2,70.2H29.8V67.3833H70.2Z"></path>
</svg>
