<?xml version="1.0" encoding="UTF-8"?>
<svg xmlns="http://www.w3.org/2000/svg" id="Layout" viewBox="0 0 100 100">
  <path d="M61,30.1H55.9V27a.9.9,0,0,0-.9-.9H45a.9.9,0,0,0-.9.9v3.1H39A2.9038,2.9038,0,0,0,36.1,33V71A2.9046,2.9046,0,0,0,39,73.9H61A2.9046,2.9046,0,0,0,63.9,71V33A2.9038,2.9038,0,0,0,61,30.1ZM45.9,27.9H54.1v2.2H45.9ZM62.1,71A1.1007,1.1007,0,0,1,61,72.1H39A1.1007,1.1007,0,0,1,37.9,71V33A1.1012,1.1012,0,0,1,39,31.9H61A1.1012,1.1012,0,0,1,62.1,33Z"></path>
  <path d="M58,45.9H42a.9.9,0,0,1-.9-.9V39a.9.9,0,0,1,.9-.9H58a.9.9,0,0,1,.9.9v6A.9.9,0,0,1,58,45.9ZM42.9,44.1H57.1V39.9H42.9Z"></path>
  <path d="M58,55.9H42a.9006.9006,0,0,1-.9-.9V49a.9.9,0,0,1,.9-.9H58a.9.9,0,0,1,.9.9v6A.9006.9006,0,0,1,58,55.9ZM42.9,54.1H57.1V49.9H42.9Z"></path>
  <path d="M58,65.9H42a.9006.9006,0,0,1-.9-.9V59a.9006.9006,0,0,1,.9-.9H58a.9006.9006,0,0,1,.9.9v6A.9006.9006,0,0,1,58,65.9ZM42.9,64.1H57.1V59.9H42.9Z"></path>
</svg>
