<?xml version="1.0" encoding="UTF-8"?>
<svg xmlns="http://www.w3.org/2000/svg" id="Layout" viewBox="0 0 100 100">
  <path d="M72.0947,27.1H27.9053a2.9373,2.9373,0,0,0-2.9346,2.9336V59.9658A2.9379,2.9379,0,0,0,27.9053,62.9H50.5841a9.9285,9.9285,0,0,0,8.2606,6.1467V72.1H53.1572a.9.9,0,1,0,0,1.8008H66.375a.9.9,0,0,0,0-1.8008h-5.73v-3.05A9.9287,9.9287,0,0,0,68.948,62.9h3.1467a2.9379,2.9379,0,0,0,2.9346-2.9346V30.0337A2.9373,2.9373,0,0,0,72.0947,27.1ZM27.9053,28.9H72.0947a1.1353,1.1353,0,0,1,1.1338,1.1338v2.59a.858.858,0,0,0-.1963-.04H26.9678a.858.858,0,0,0-.1963.04v-2.59A1.1353,1.1353,0,0,1,27.9053,28.9ZM72.0947,61.1H69.4886a9.915,9.915,0,0,0,.19-1.9189.9.9,0,0,0-1.8008,0,8.1118,8.1118,0,1,1-16.2236,0,.9.9,0,0,0-1.8008,0,9.9071,9.9071,0,0,0,.19,1.9189H27.9053a1.1353,1.1353,0,0,1-1.1338-1.1338V34.3442a.8633.8633,0,0,0,.1963.04H73.0322a.8633.8633,0,0,0,.1963-.04V59.9658A1.1353,1.1353,0,0,1,72.0947,61.1Z"></path>
  <path d="M40,38.4873a8.7066,8.7066,0,1,0,8.707,8.7061A8.7164,8.7164,0,0,0,40,38.4873ZM40,54.1a6.9063,6.9063,0,1,1,6.9063-6.9062A6.9134,6.9134,0,0,1,40,54.1Z"></path>
  <path d="M44.2471,46.4341l-5.793-3.6861a.9.9,0,0,0-1.3838.7593V50.88a.9.9,0,0,0,1.3838.76l5.793-3.687a.9.9,0,0,0,0-1.5185ZM38.8711,49.24V45.147l3.2158,2.0464Z"></path>
  <path d="M61.1289,44.5737H58.4033a4.9509,4.9509,0,0,0-4.9453,4.9449V60.1094a4.9513,4.9513,0,0,0,4.9453,4.9453h2.7256a4.9513,4.9513,0,0,0,4.9453-4.9453V49.5186A4.9509,4.9509,0,0,0,61.1289,44.5737Zm3.1445,15.5357a3.1474,3.1474,0,0,1-3.1445,3.1445H58.4033a3.1474,3.1474,0,0,1-3.1445-3.1445V49.5186a3.1482,3.1482,0,0,1,3.1445-3.1451h2.7256a3.1482,3.1482,0,0,1,3.1445,3.1451Z"></path>
</svg>
